Ostrich_Walking_GRF_Data																		
inDegrees=yes
nColumns=19
nRows=72
DataType=double
version=3
OpenSimVersion=4.4.1-2023-07-13-710e13be5
endheader
time	ground_force_vx	ground_force_vy	ground_force_vz	ground_force_px	ground_force_py	ground_force_pz	1_ground_force_vx	1_ground_force_vy	1_ground_force_vz	1_ground_force_px	1_ground_force_py	1_ground_force_pz	ground_torque_x	ground_torque_y	ground_torque_z	1_ground_torque_x	1_ground_torque_y	1_ground_torque_z
0.64	-187.1709	822.8656999999999	10.4405	1.884758573411634	0	-0.8337222183443496	1.5733	13.0483	2.5124	1.455987380265558	0	-0.7966765698859802	0	-5.786648167	0	0	0.345269473	0
0.645	-183.8367	826.011	11.7506	1.882805896799433	0	-0.8333831710921799	2.2073	5.7643	2.0984	1.287705402589787	0	-1.022416661179984	0	-6.010954776	0	0	0.78343555	0
0.65	-180.1927	827.7409	13.0113	1.886803773036965	0	-0.8321918433432685	2.5774	0.9971	1.7214	1.293393829055916	0	-0.9926070343951826	0	-6.23473479	0	0	0	0
0.655	-176.2535	828.0942	14.2058	1.886794338339123	0	-0.831017064935759	2.3065	-1.9527	1.5491	0	0	0	0	-6.456996784	0	0	0	0
0.66	-172.0781	827.1454	15.318	1.888000427946961	0	-0.8284297714599803	0	0	0	0	0	0	0	-6.670751654	0	0	0	0
0.665	-167.6993	824.9743999999999	16.3318	1.890091985447578	0	-0.8300089204896824	0	0	0	0	0	0	0	-6.869867981	0	0	0	0
0.67	-163.1567	821.6449	17.232	1.891274443213513	0	-0.8298360090674768	0	0	0	0	0	0	0	-7.050854243	0	0	0	0
0.675	-158.473	817.2154	17.9918	1.89030647360269	0	-0.825249600381693	0	0	0	0	0	0	0	-7.212894035	0	0	0	0
0.68	-153.6891	811.8072	18.579	1.891790602092768	0	-0.8256966215275886	0	0	0	0	0	0	0	-7.353126817	0	0	0	0
0.6850000000000001	-148.839	805.5672	18.9647	1.890757245310354	0	-0.8252652611153024	0	0	0	0	0	0	0	-7.462113193	0	0	0	0
0.6899999999999999	-143.9684	798.6182	19.1241	1.893315055860694	0	-0.8247669295011093	0	0	0	0	0	0	0	-7.527048044	0	0	0	0
0.695	-139.1183	791.0626999999999	19.0374	1.894217437561821	0	-0.823317092750812	0	0	0	0	0	0	0	-7.538425231	0	0	0	0
0.7	-134.3375	783.0024	18.6944	1.8952427099995	0	-0.823382512721074	0	0	0	0	0	0	0	-7.488502677	0	0	0	0
0.705	-129.7171	774.551	18.1263	1.894303028568184	0	-0.8219392863816306	0	0	0	0	0	0	0	-7.372067315	0	0	0	0
0.71	-125.3512	765.8292	17.4227	1.895936270150168	0	-0.8204818488181338	0	0	0	0	0	0	0	-7.196683225	0	0	0	0
0.715	-121.2931	757.0032	16.7842	1.898422343124453	0	-0.8201967972259374	0	0	0	0	0	0	0	-6.994725956	0	0	0	0
0.72	-117.3807	748.2364	16.3875	1.89795983315082	0	-0.8197388336576233	0	0	0	0	0	0	0	-6.809622644	0	0	0	0
0.725	-113.2799	739.5072	16.2334	1.898385326870549	0	-0.8178888566100876	0	0	0	0	0	0	0	-6.66958068	0	0	0	0
0.73	-109.0094	730.7977	16.177	1.899024184710712	0	-0.8174226340582476	0	0	0	0	0	0	0	-6.570673593	0	0	0	0
0.735	-104.8144	722.149	16.0797	1.901476090191496	0	-0.8168606400696975	0	0	0	0	0	0	0	-6.493421975	0	0	0	0
0.74	-100.7713	713.5272	15.8846	1.899446830101699	0	-0.8134977781584019	0	0	0	0	0	0	0	-6.415226922	0	0	0	0
0.745	-96.8603	704.8962	15.571	1.900815425945814	0	-0.8127239241787969	0	0	0	0	0	0	0	-6.317019426	0	0	0	0
0.75	-93.06480000000001	696.2477	15.1242	1.902980802296003	0	-0.8143539755879249	0	0	0	0	0	0	0	-6.185243322	0	0	0	0
0.755	-89.4041	687.5972	14.5039	1.903993506209652	0	-0.8116946045394814	0	0	0	0	0	0	0	-6.015393148	0	0	0	0
0.76	-85.8896	678.9857	13.6566	1.904604077201589	0	-0.8132154796165948	0	0	0	0	0	0	0	-5.810515266	0	0	0	0
0.765	-82.4803	670.4322	12.5952	1.902388739655259	0	-0.811887099838922	0	0	0	0	0	0	0	-5.574291013	0	0	0	0
0.77	-79.1446	661.9472	11.3783	1.906520035489655	0	-0.8105499314477711	0	0	0	0	0	0	0	-5.312070179	0	0	0	0
0.775	-75.8824	653.5827	10.0404	1.906163319474333	0	-0.8089800766958173	0	0	0	0	0	0	0	-5.030364253	0	0	0	0
0.78	-72.6977	645.4015000000001	8.5791	1.905040160477225	0	-0.8084063168672271	0	0	0	0	0	0	0	-4.734717089	0	0	0	0
0.785	-69.59269999999999	637.4515	6.9853	1.906233406075613	0	-0.8109753840200544	0	0	0	0	0	0	0	-4.431314114	0	0	0	0
0.79	-66.5723	629.7646999999999	5.2653	1.905831440939735	0	-0.8088036871969175	0	0	0	0	0	0	0	-4.124738314	0	0	0	0
0.795	-63.6395	622.3758	3.4379	1.907367968453305	0	-0.811062604308056	0	0	0	0	0	0	0	-3.817032928	0	0	0	0
0.8	-60.7939	615.3329	1.5252	1.906846962290373	0	-0.8113788854816351	0	0	0	0	0	0	0	-3.509786636	0	0	0	0
0.805	-58.0343	608.6668	-0.452	1.905290961899549	0	-0.8101884305168425	0	0	0	0	0	0	0	-3.209574662	0	0	0	0
0.8100000000000001	-55.3462	602.398	-2.4622	1.905199812208671	0	-0.8087229452086802	0	0	0	0	0	0	0	-2.917353355	0	0	0	0
0.8149999999999999	-52.7163	596.5458	-4.4584	1.90670675183478	0	-0.8105210567149024	0	0	0	0	0	0	0	-2.639702338	0	0	0	0
0.82	-50.1338	591.1047	-6.3903	1.906610481005449	0	-0.8112537651657804	0	0	0	0	0	0	0	-2.378062358	0	0	0	0
0.825	-47.5894	586.0544	-8.209199999999999	1.905005003218884	0	-0.8096844951078241	0	0	0	0	0	0	0	-2.134448396	0	0	0	0
0.83	-45.0749	581.3617	-9.879	1.903653037766956	0	-0.8122065490704405	0	0	0	0	0	0	0	-1.908773334	0	0	0	0
0.835	-42.5883	577.018	-11.3871	1.905113281830749	0	-0.8110001343066314	0	0	0	0	0	0	0	-1.701486702	0	0	0	0
0.84	-40.1348	573.0349	-12.7403	1.906856424763066	0	-0.8134474434421255	0	0	0	0	0	0	0	-1.514530773	0	0	0	0
0.845	-37.7196	569.4198	-13.9634	1.909807260268955	0	-0.817316774581768	0	0	0	0	0	0	0	-1.344047449	0	0	0	0
0.85	-35.3513	566.1585	-15.0864	1.907777555612898	0	-0.8160156646819567	0	0	0	0	0	0	0	-1.182920433	0	0	0	0
0.855	-33.0354	563.2447	-16.1124	1.910449479116085	0	-0.8181344693577947	0	0	0	0	0	0	0	-1.027114037	0	0	0	0
0.86	-30.7692	560.6797	-17.0054	1.912033341070904	0	-0.8185822116391981	0	0	0	0	0	0	0	-0.87818599	0	0	0	0
0.865	-28.5433	558.4589	-17.7103	1.910479522819262	0	-0.8174530066579598	0	0	0	0	0	0	0	-0.739079758	0	0	0	0
0.87	-26.3503	556.5743	-18.211	1.913929062136163	0	-0.8242551099128931	0	0	0	0	0	0	0	-0.614903603	0	0	0	0
0.875	-24.184	555.045	-18.5563	1.919421193884272	0	-0.8256699875779342	0	0	0	0	0	0	0	-0.502506813	0	0	0	0
0.88	-22.0413	553.9382000000001	-18.82	1.920844166433045	0	-0.8253733487703724	0	0	0	0	0	0	0	-0.399485756	0	0	0	0
0.885	-19.919	553.3073000000001	-19.0491	1.919362731228939	0	-0.8271234955208149	0	0	0	0	0	0	0	-0.304063567	0	0	0	0
0.89	-17.8072	553.1573	-19.2492	1.922220081036986	0	-0.8283475191067728	0	0	0	0	0	0	0	-0.212826453	0	0	0	0
0.895	-15.695	553.471	-19.41	1.925353103622063	0	-0.8321551598883906	0	0	0	0	0	0	0	-0.122347499	0	0	0	0
0.9	-13.5753	554.2563	-19.533	1.929200968597948	0	-0.8337752783495372	0	0	0	0	0	0	0	-0.0278853	0	0	0	0
0.905	-11.4533	555.5436999999999	-19.631	1.927715225818668	0	-0.834741381424534	0	0	0	0	0	0	0	0.072875853	0	0	0	0
0.91	-9.3483	557.333	-19.706	1.927183675078438	0	-0.8349801031216718	0	0	0	0	0	0	0	0.181603919	0	0	0	0
0.915	-7.2643	559.6033	-19.7593	1.927727082082934	0	-0.8358001578737516	0	0	0	0	0	0	0	0.296506603	0	0	0	0
0.92	-5.1851	562.3205	-19.806	1.929858273759983	0	-0.8377136616171169	0	0	0	0	0	0	0	0.414183536	0	0	0	0
0.925	-3.0822	565.4532	-19.8704	1.930923786958281	0	-0.8359681612621016	0	0	0	0	0	0	0	0.532573255	0	0	0	0
0.93	-0.9221	568.982	-19.965	1.930244416637234	0	-0.8379208612833735	0	0	0	0	0	0	0	0.648345484	0	0	0	0
0.9350000000000001	1.3157	572.9049	-20.0873	1.929844658137715	0	-0.8365494611193136	0	0	0	0	0	0	0	0.762884286	0	0	0	0
0.9399999999999999	3.6382	577.2332	-20.2254	1.933053528907821	0	-0.8370162248337011	0	0	0	0	0	0	0	0.875311408	0	0	0	0
0.945	6.0469	581.9543	-20.362	1.93243296783574	0	-0.8393141740824372	0	0	0	0	0	0	0	0.98322454	0	0	0	0
0.95	8.5449	587.0385	-20.4974	1.931131449775779	0	-0.8391493588780558	0	0	0	0	0	0	0	1.085200661	0	0	0	0
0.955	11.141	592.4693	-20.6532	1.933607394582007	0	-0.8383643120347765	0	0	0	0	0	0	0	1.182462186	0	0	0	0
0.96	13.8327	598.2388	-20.8471	1.932934448005622	0	-0.8388352173775155	0	0	0	0	0	0	0	1.278209	0	0	0	0
0.965	16.5988	604.3133	-21.085	1.934451405774553	0	-0.8388825714556802	0	0	0	0	0	0	0	1.376036227	0	0	0	0
0.97	19.4054	610.6359	-21.3402	1.935372978988503	0	-0.8387087222910263	0	0	0	0	0	0	0	1.478447959	0	0	0	0
0.975	22.2135	617.1482	-21.5731	1.937367097197219	0	-0.8389722054422787	0	0	0	0	0	0	0	1.583675305	0	0	0	0
0.98	24.9968	623.793	-21.763	1.937982029543511	0	-0.8393995294105434	0	0	0	0	0	0	0	1.688940856	0	0	0	0
0.985	27.7585	630.528	-21.9223	1.936668786549642	0	-0.8383716695790484	0	0	0	0	0	0	0	1.793096634	0	0	0	0
0.99	30.5122	637.308	-22.0914	1.939617462480718	0	-0.8397102034619437	0	0	0	0	0	0	0	1.895102562	0	0	0	0
0.995	33.2783	644.0837	-22.2933	1.941738681214457	0	-0.841134911696005	0	0	0	0	0	0	0	1.99325895	0	0	0	0
